<?xml version="1.0" encoding="UTF-8"?>
<svg width="32" height="32" viewBox="0 0 32 32" fill="none" xmlns="http://www.w3.org/2000/svg">
  <!-- Background circle -->
  <circle cx="16" cy="16" r="16" fill="#3B82F6"/>
  
  <!-- Stylized location pin -->
  <path d="M16 8C12.6863 8 10 10.6863 10 14C10 18.5 16 24 16 24C16 24 22 18.5 22 14C22 10.6863 19.3137 8 16 8ZM16 16C14.8954 16 14 15.1046 14 14C14 12.8954 14.8954 12 16 12C17.1046 12 18 12.8954 18 14C18 15.1046 17.1046 16 16 16Z" fill="white"/>
  
  <!-- Small decorative dots -->
  <circle cx="8" cy="20" r="2" fill="white" opacity="0.5"/>
  <circle cx="24" cy="20" r="2" fill="white" opacity="0.5"/>
</svg>
